<?xml version="1.0" encoding="utf-8"?>
<!-- Generator: Adobe Illustrator 27.6.1, SVG Export Plug-In . SVG Version: 6.00 Build 0) -->
<svg version="1.1" id="Layer_1" xmlns="http://www.w3.org/2000/svg" xmlns:xlink="http://www.w3.org/1999/xlink" x="0px" y="0px" viewBox="0 0 512 512" style="enable-background:new 0 0 512 512;" xml:space="preserve">
	<style type="text/css">
		.st0{fill:#800000;}
		.st1{fill:#FFFFFF;}
		.st2{fill:#fff;}
	</style>
	<g id="Layer_2_00000124148629610746264930000005899989374434555024_">
		<g id="svg2">
			<g id="layer3">
				<g id="g6907">
					<g>
						<path id="path6909_00000046315518366251323790000006577709874943030152_" class="st0" d="M57.3,320.56
						c56.49-32.28,56.49-32.28,56.49-112.98c-24.21,0-32.28,0-56.49-16.14 M57.3,320.56C0.81,288.28,0.81,288.28,0.81,207.58
						c24.21,0,32.28,0,56.49-16.14" />
						<path class="st1" d="M57.3,321.37C57.3,321.37,57.3,321.37,57.3,321.37c-0.11,0-0.22-0.02-0.33-0.07
						c-0.03-0.01-0.06-0.03-0.08-0.04C0,288.75,0,288.74,0,207.58c0-0.45,0.36-0.81,0.81-0.81c23.96,0,32.03,0,56.03-15.99
						c0.04-0.03,0.08-0.05,0.12-0.07c0.11-0.05,0.22-0.08,0.34-0.08c0,0,0,0,0,0c0.11,0,0.23,0.02,0.34,0.07
						c0.04,0.02,0.09,0.04,0.13,0.07c23.99,15.99,32.07,15.99,56.03,15.99c0.45,0,0.81,0.36,0.81,0.81c0,81.16,0,81.17-56.88,113.67
						c-0.03,0.01-0.05,0.03-0.08,0.04C57.52,321.34,57.41,321.37,57.3,321.37z M1.61,208.39c0,79.24,0.19,79.53,55.69,111.25
						c55.5-31.71,55.68-32.01,55.69-111.25c-23.56,0-31.89-0.18-55.69-15.98C33.5,208.21,25.17,208.38,1.61,208.39z" />
					</g>
				</g>
			</g>
			<g id="layer5">
				<path class="st1" d="M69.4,272.14c-11.12,0-20.17-9.05-20.17-20.17c0-11.12,9.05-20.17,20.17-20.17s20.17,9.05,20.17,20.17
				C89.57,263.09,80.52,272.14,69.4,272.14z M69.4,239.85c-6.68,0-12.11,5.43-12.11,12.11c0,6.68,5.43,12.11,12.11,12.11
				s12.11-5.43,12.11-12.11C81.51,245.29,76.08,239.85,69.4,239.85z" />
				<g id="text3778">
					<path id="path3783" class="st1" d="M57.3,256c0,11.1-5.04,16.14-16.14,16.14S25.02,267.1,25.02,256v-24.21h8.07V256
					c0,7.06,1.01,8.07,8.07,8.07s8.07-1.01,8.07-8.07v-24.21h8.07V256z" />
				</g>
			</g>
			<g class="st2">
				<path d="M147.56,273.76v-5.07c-2.69,3.9-6.34,5.85-10.96,5.85c-2.04,0-3.94-0.39-5.71-1.17c-1.77-0.78-3.08-1.76-3.93-2.94
				c-0.86-1.18-1.46-2.63-1.8-4.34c-0.24-1.15-0.36-2.97-0.36-5.46v-21.4h5.85v19.15c0,3.06,0.12,5.12,0.36,6.18
				c0.37,1.54,1.15,2.75,2.34,3.63c1.19,0.88,2.67,1.32,4.42,1.32s3.4-0.45,4.94-1.35c1.54-0.9,2.63-2.12,3.27-3.67
				c0.64-1.55,0.96-3.8,0.96-6.75v-18.5h5.85v34.54H147.56z" />
				<path d="M162.45,273.76v-47.67h17.89c3.64,0,6.56,0.48,8.76,1.45c2.2,0.97,3.92,2.45,5.17,4.46c1.25,2.01,1.87,4.1,1.87,6.29
				c0,2.04-0.55,3.96-1.66,5.76c-1.11,1.8-2.78,3.25-5.01,4.36c2.88,0.85,5.1,2.29,6.65,4.32c1.55,2.04,2.33,4.44,2.33,7.22
				c0,2.23-0.47,4.31-1.41,6.23c-0.94,1.92-2.11,3.4-3.5,4.44c-1.39,1.04-3.13,1.83-5.22,2.36c-2.09,0.53-4.66,0.8-7.69,0.8H162.45z
				 M168.76,246.12h10.31c2.8,0,4.8-0.18,6.02-0.55c1.6-0.48,2.81-1.27,3.63-2.37c0.81-1.11,1.22-2.49,1.22-4.16
				c0-1.58-0.38-2.98-1.14-4.18c-0.76-1.2-1.84-2.03-3.25-2.47c-1.41-0.44-3.83-0.67-7.25-0.67h-9.53V246.12z M168.76,268.14h11.87
				c2.04,0,3.47-0.08,4.29-0.23c1.45-0.26,2.67-0.69,3.64-1.3c0.98-0.61,1.78-1.49,2.41-2.65c0.63-1.16,0.94-2.5,0.94-4.02
				c0-1.78-0.46-3.32-1.37-4.63c-0.91-1.31-2.17-2.23-3.79-2.76c-1.61-0.53-3.94-0.8-6.97-0.8h-11.02V268.14z" />
				<path d="M206.26,273.76v-47.67h5.85v47.67H206.26z" />
				<path d="M219,256.5c0-6.4,1.78-11.13,5.33-14.21c2.97-2.56,6.59-3.84,10.86-3.84c4.75,0,8.63,1.56,11.64,4.67
				c3.01,3.11,4.52,7.41,4.52,12.89c0,4.44-0.67,7.94-2,10.49c-1.33,2.55-3.27,4.53-5.82,5.94c-2.55,1.41-5.33,2.11-8.34,2.11
				c-4.83,0-8.74-1.55-11.72-4.65C220.49,266.79,219,262.33,219,256.5z M225.02,256.5c0,4.42,0.96,7.73,2.89,9.93
				c1.93,2.2,4.36,3.3,7.28,3.3c2.9,0,5.32-1.11,7.25-3.32c1.93-2.21,2.89-5.58,2.89-10.11c0-4.27-0.97-7.51-2.91-9.71
				c-1.94-2.2-4.35-3.3-7.24-3.3c-2.93,0-5.36,1.09-7.28,3.28C225.98,248.77,225.02,252.07,225.02,256.5z" />
				<path d="M280.76,261.11l5.76,0.75c-0.63,3.97-2.24,7.07-4.83,9.32s-5.77,3.37-9.54,3.37c-4.73,0-8.53-1.54-11.4-4.63
				c-2.87-3.09-4.31-7.52-4.31-13.28c0-3.73,0.62-6.99,1.85-9.79c1.24-2.8,3.12-4.89,5.64-6.29c2.53-1.4,5.27-2.1,8.24-2.1
				c3.75,0,6.82,0.95,9.2,2.85c2.38,1.9,3.91,4.59,4.59,8.08l-5.69,0.88c-0.54-2.32-1.5-4.06-2.88-5.24
				c-1.38-1.17-3.04-1.76-4.99-1.76c-2.95,0-5.35,1.06-7.19,3.17c-1.84,2.11-2.76,5.46-2.76,10.03c0,4.64,0.89,8.01,2.67,10.11
				c1.78,2.1,4.1,3.15,6.96,3.15c2.3,0,4.22-0.7,5.76-2.11C279.37,266.21,280.35,264.04,280.76,261.11z" />
				<path d="M291.55,273.76v-47.67h5.85v27.19l13.85-14.05h7.58l-13.2,12.81l14.54,21.72h-7.22l-11.41-17.66l-4.13,3.97v13.69H291.55
				z" />
				<path d="M342.15,250.55c0-7.91,2.12-14.11,6.37-18.58c4.25-4.48,9.73-6.72,16.45-6.72c4.4,0,8.37,1.05,11.9,3.15
				c3.53,2.1,6.23,5.04,8.08,8.8c1.85,3.76,2.78,8.03,2.78,12.8c0,4.83-0.97,9.16-2.93,12.98c-1.95,3.82-4.72,6.7-8.29,8.67
				c-3.58,1.96-7.44,2.94-11.58,2.94c-4.49,0-8.5-1.08-12.03-3.25c-3.53-2.17-6.21-5.13-8.03-8.88
				C343.06,258.7,342.15,254.73,342.15,250.55z M348.66,250.64c0,5.75,1.54,10.27,4.63,13.58c3.09,3.31,6.96,4.96,11.63,4.96
				c4.75,0,8.66-1.67,11.72-5.01c3.07-3.34,4.6-8.08,4.6-14.21c0-3.88-0.66-7.27-1.97-10.16s-3.23-5.14-5.76-6.73
				c-2.53-1.59-5.36-2.39-8.5-2.39c-4.47,0-8.31,1.53-11.53,4.6C350.27,238.35,348.66,243.47,348.66,250.64z" />
				<path d="M395.06,273.76v-34.54h5.27v5.24c1.34-2.45,2.59-4.06,3.72-4.85c1.14-0.78,2.39-1.17,3.76-1.17
				c1.97,0,3.98,0.63,6.02,1.89l-2.02,5.43c-1.43-0.85-2.86-1.27-4.29-1.27c-1.28,0-2.43,0.39-3.45,1.15
				c-1.02,0.77-1.75,1.84-2.18,3.2c-0.65,2.08-0.98,4.36-0.98,6.83v18.08H395.06z" />
				<path d="M417.34,232.82v-6.73h5.85v6.73H417.34z M417.34,273.76v-34.54h5.85v34.54H417.34z" />
				<path d="M431.03,276.63l5.69,0.85c0.24,1.76,0.9,3.03,1.98,3.84c1.45,1.08,3.44,1.63,5.95,1.63c2.71,0,4.8-0.54,6.28-1.63
				c1.47-1.08,2.47-2.6,2.99-4.55c0.3-1.19,0.44-3.7,0.42-7.51c-2.56,3.01-5.75,4.52-9.56,4.52c-4.75,0-8.42-1.71-11.02-5.14
				c-2.6-3.42-3.9-7.53-3.9-12.32c0-3.29,0.6-6.34,1.79-9.12c1.19-2.79,2.92-4.94,5.19-6.46c2.27-1.52,4.93-2.28,7.98-2.28
				c4.08,0,7.44,1.65,10.08,4.94v-4.16h5.4v29.85c0,5.38-0.55,9.19-1.64,11.43s-2.83,4.02-5.2,5.32c-2.37,1.3-5.3,1.95-8.76,1.95
				c-4.12,0-7.45-0.93-9.98-2.78C432.17,283.15,430.94,280.35,431.03,276.63z M435.87,255.88c0,4.53,0.9,7.84,2.7,9.92
				c1.8,2.08,4.05,3.12,6.76,3.12c2.69,0,4.94-1.03,6.76-3.11c1.82-2.07,2.73-5.32,2.73-9.74c0-4.23-0.94-7.41-2.81-9.56
				c-1.88-2.15-4.14-3.22-6.78-3.22c-2.6,0-4.81,1.06-6.63,3.17C436.78,248.58,435.87,251.72,435.87,255.88z" />
				<path d="M469.17,232.82v-6.73h5.85v6.73H469.17z M469.17,273.76v-34.54h5.85v34.54H469.17z" />
				<path d="M483.94,273.76v-34.54h5.27v4.91c2.54-3.79,6.2-5.69,10.99-5.69c2.08,0,3.99,0.37,5.74,1.12
				c1.75,0.75,3.05,1.73,3.92,2.94c0.87,1.21,1.47,2.66,1.82,4.32c0.22,1.08,0.32,2.98,0.32,5.69v21.23h-5.85v-21.01
				c0-2.38-0.23-4.17-0.68-5.35c-0.46-1.18-1.26-2.12-2.42-2.83c-1.16-0.7-2.52-1.06-4.08-1.06c-2.49,0-4.65,0.79-6.45,2.37
				c-1.81,1.58-2.72,4.59-2.72,9.01v18.86H483.94z" />
			</g>
		</g>
	</g>
</svg>
